<svg class="styles_item__icon___4gR9" xmlns="http://www.w3.org/2000/svg" viewBox="0 0 120 88"><path d="M115.3 37.56a4 4 0 0 0 4-4.1V14.11a4.12 4.12 0 0 0-4.11-4.1H79.65a4.11 4.11 0 0 0-4.1 4.1v10.76h-3V4.92a4.81 4.81 0 0 0-4.76-4.7H52.06a4.82 4.82 0 0 0-4.75 4.7v39.55a4.82 4.82 0 0 0 4.75 4.75h.59v28.29a5 5 0 0 0 5 4.95h26.33a5 5 0 0 0 4.94-4.95V37.56Zm0-2H79.65a2.1 2.1 0 0 1-2.1-2.1V17.22h39.74v16.24a2 2 0 0 1-1.99 2.1ZM79.65 12.01h35.53a2.11 2.11 0 0 1 2.11 2.1v1.11H77.56v-1.11a2.1 2.1 0 0 1 2.09-2.1ZM49.31 44.47V4.92a2.78 2.78 0 0 1 2.75-2.7h15.73a2.78 2.78 0 0 1 2.75 2.7v39.55a2.72 2.72 0 0 1-2.75 2.75H52.06a2.79 2.79 0 0 1-2.75-2.75Zm37.61 33a2.94 2.94 0 0 1-3 2.95H57.65a3 3 0 0 1-3-2.95V49.22h13.14a4.7 4.7 0 0 0 4.75-4.75v-17.6h3v6.59a4.11 4.11 0 0 0 4.1 4.1h7.26ZM59.65 57.62a1 1 0 0 1 1-1h20.42a1 1 0 0 1 0 2H60.65a1 1 0 0 1-1-1Zm0 4.06a1 1 0 0 1 1-1h20.42a1 1 0 0 1 0 2H60.65a1 1 0 0 1-1-1Zm1-9h20.42a1 1 0 0 1 0 2H60.65a1 1 0 0 1 0-2Zm6.45-11.83a1 1 0 0 1-1 1H53.77a1 1 0 0 1 0-2h12.31a1 1 0 0 1 1 .99Zm-14-4.06a1 1 0 0 1 1-1h11.65a1 1 0 0 1 0 2H54.09a1 1 0 0 1-1-1.01Zm28.4 28a1 1 0 0 1 0 2H60.09a1 1 0 0 1 0-2Zm-28.4-32a1 1 0 0 1 1-1h11.65a1 1 0 0 1 0 2H54.09a1 1 0 0 1-1-1.08Zm0-10.86V8.34a.78.78 0 0 1 0-.21.72.72 0 0 1 .14-.31c0-.06.08-.12.13-.17s.08 0 .12-.07a.81.81 0 0 1 .18-.1.78.78 0 0 1 .22 0 .5.5 0 0 1 .13 0h11.74a.7.7 0 0 1 .14 0 .65.65 0 0 1 .2 0 .64.64 0 0 1 .18.1l.13.07a1.1 1.1 0 0 1 .09.14.7.7 0 0 1 .1.16.48.48 0 0 1 0 .17.71.71 0 0 1 0 .2v13.49a1 1 0 0 1 0 .24.74.74 0 0 1 .05.17.57.57 0 0 1-.11.16 1 1 0 0 1-.11.15 1 1 0 0 1-.17.11.6.6 0 0 1-.11.06 1 1 0 0 1-.37.08H54.09a.7.7 0 0 1-.14 0h-.2a1.18 1.18 0 0 1-.19-.11.47.47 0 0 1-.12-.07 2.2 2.2 0 0 1-.23-.32.53.53 0 0 1 0-.18.65.65 0 0 1-.11-.25Zm0 6.8a1 1 0 0 1 1-1h11.65a1 1 0 0 1 0 2H54.09a1 1 0 0 1-1-1.08Zm42.64-7.87a1 1 0 0 0-.11-.77 1 1 0 0 0-.89-.54H82.65a1 1 0 0 0-.76.35 1 1 0 0 0-.23 1v11.16a1.11 1.11 0 0 0 1 1.41h12.07a1 1 0 0 0 .92-.62 1 1 0 0 0 .08-.71Zm-3.37.69-3.72 3.51-3.7-3.59Zm-8.72 1.4 3.61 3.51-3.61 3.51Zm1.33 8.52 3.67-3.62 3.71 3.62Zm8.79-1.48-3.64-3.53 3.64-3.53ZM21.44 45.22a21.62 21.62 0 0 0 0 43.24 21.62 21.62 0 0 0 0-43.24ZM9.65 82.36a11.51 11.51 0 0 1 6.47-4.09v.95h2v-2.79a5.15 5.15 0 0 0 2.53-.82 9.66 9.66 0 0 0 2.38-2.15c.47 2.8 1.41 6.58 3.12 7.6l1-1.71a2.91 2.91 0 0 1-.88-1.33c2.11.3 5.85 1.15 8 3.42a19.19 19.19 0 0 1-12.88 5 19.26 19.26 0 0 1-11.74-4.08ZM23.07 63.8a.45.45 0 0 1 .16 0c.05 0 .18.06.14.48a3.43 3.43 0 0 1-.5 1.3 2.45 2.45 0 0 0-.28-1.63.72.72 0 0 1 .48-.15Zm-7.73 1.55c1.11-.18 1.45-.23 2.15.79a3.06 3.06 0 0 0 4.16 1.17 1.88 1.88 0 0 0 .23-.16c-.35.78-.39 1.75.88 2.82a8.18 8.18 0 0 1-3.11 3.93 2.43 2.43 0 0 1-2.08.42c-1.18-.55-2.11-4.89-2.39-8.94Zm20.41 14.68c-3-3.13-8.16-3.92-10.14-4.12a35.43 35.43 0 0 1-.89-4.89 3.14 3.14 0 0 0 .71.09 2.69 2.69 0 0 0 1.32-.33 3 3 0 0 0 1.42-3c0-.2 0-.71.08-1.26.25-2.77.7-7.94-2-10.45a6.08 6.08 0 0 0-5.44-1.21c-7.48 1.23-10.44 2.88-10.5 5.88a5.15 5.15 0 0 0 .66 3.57 2.91 2.91 0 0 0 2 1.16h.18c.18 2.83.82 8.47 3 10.29v.46a13.19 13.19 0 0 0-8 4.81 19.63 19.63 0 0 1 13.29-33.81 19.63 19.63 0 0 1 14.31 32.81ZM21.54 0a21.73 21.73 0 0 0 0 43.45 21.73 21.73 0 0 0 0-43.45ZM8.65 36.49a11.4 11.4 0 0 1 4.76-2.63c.93 2.85 2.53 5.08 5 6 1.31.46 4-4.14 3.1-9.92a9 9 0 0 0 .91.65 5.09 5.09 0 0 0 2.54.82v3a1 1 0 0 0 2 0v-.92a11.37 11.37 0 0 1 6.44 4 19.26 19.26 0 0 1-24.75-1Zm18.6-7.91a1.57 1.57 0 0 1-1.26.58 1 1 0 0 0-.42.09 2.44 2.44 0 0 1-2.07-.41c-1.74-1.07-3.3-3.36-3.36-4.91v-.11c1.06-1.32-1-2-1.38-4.33.4-2.23 2.31 0 2.31 0 1.29-2 3.17-3.69 7-.15a1.48 1.48 0 0 0 0 .21c.25 1.89.72 7.18-.84 9.03Zm7.7 7.46a13.14 13.14 0 0 0-8-4.67v-.35a3.47 3.47 0 0 0 1.78-1.15c2.25-2.65 1.54-8.65 1.3-10.29.17-5.43-1.78-8.06-4.47-9.13a8.59 8.59 0 0 0-7.32.5 2.62 2.62 0 1 0-3.33 3.12 9.29 9.29 0 0 0-.92 1.87 32.48 32.48 0 0 0-1.11 16 13.54 13.54 0 0 0-5.67 3.15A19.72 19.72 0 0 1 21.54 2a19.74 19.74 0 0 1 13.39 34Zm80.26 27.18H95.39a4.12 4.12 0 0 0-4.09 4.14v20.08a1 1 0 0 0 1 1 1 1 0 0 0 .83-.45l3.69-5.55h18.29a4.22 4.22 0 0 0 4.19-4V67.32a4.13 4.13 0 0 0-4.09-4.1Zm-.1 17.26H96.28a1 1 0 0 0-.83.45l-2.15 3.24V67.32a2.14 2.14 0 0 1 2.09-2.1h19.82a2.15 2.15 0 0 1 2.09 2.14v11a2.18 2.18 0 0 1-2.19 2.08ZM98.43 70.29a3.12 3.12 0 0 0-3.15 3.13 3.15 3.15 0 1 0 3.15-3.13Zm0 4.26a1.14 1.14 0 0 1-1.14-1.13 1.1 1.1 0 0 1 .34-.8 1.08 1.08 0 0 1 .8-.33 1.11 1.11 0 0 1 .8.33 1.13 1.13 0 0 1-.81 1.93Zm13.87-50.33a1 1 0 0 1-1 1h-12a1 1 0 0 1 0-2h12a1 1 0 0 1 1 1Zm-6.73 46.11a3.14 3.14 0 0 0-3.14 3.13 3.14 3.14 0 0 0 3.14 3.13 3.13 3.13 0 1 0 0-6.26Zm0 4.26a1.14 1.14 0 0 1-1.14-1.13 1.14 1.14 0 0 1 1.14-1.13 1.13 1.13 0 1 1 0 2.26Zm7.14-4.26a3 3 0 0 0-2.22.91 3.15 3.15 0 1 0 2.23-.91Zm0 4.26a1.13 1.13 0 0 1-.81-1.93 1.12 1.12 0 0 1 .81-.33 1.13 1.13 0 1 1 0 2.26Zm-.06-55.37a1 1 0 0 1-1 1h-12a1 1 0 0 1 0-2h12a1 1 0 0 1 1 1Z"></path></svg>