<svg class="styles_item__icon___4gR9" xmlns="http://www.w3.org/2000/svg" viewBox="0 0 120 88"><path d="m82.74.92-.37.11C68.13 6.03 61.29 8.58 59 9.85a2.29 2.29 0 0 0-.6.38l-.17.14L39.6 29.14a13.94 13.94 0 0 0-2.11 16.58l-8.81 2.42a1 1 0 0 0-.57.26l-2.14 2.15c-1.68 1.7.82 5.41 3.46 8.08 1.9 1.91 4.62 3.94 6.57 3.94a2 2 0 0 0 1.47-.56l2.14-2.15a.85.85 0 0 0 .17-.25.49.49 0 0 0 0-.11l2.42-8.88a13.21 13.21 0 0 0 6.73 1.84h.15a13.5 13.5 0 0 0 9.59-4.11l1.16-1.18.05-.05 17.38-17.6a2.39 2.39 0 0 0 .25-.32 2.75 2.75 0 0 0 .24-.41c1.38-2.51 4.22-10.55 8.47-23.06l.32-.95a2.87 2.87 0 0 0-.58-3.05 3.09 3.09 0 0 0-3.22-.81ZM60.37 11.59c1.7 0 5.44 1.92 9.62 6.14 5.32 5.36 6.67 9.6 5.9 10.38a1 1 0 0 1-.66.19c-1.7 0-5.44-1.92-9.62-6.14-5.32-5.35-6.67-9.59-5.91-10.37a1 1 0 0 1 .67-.2Zm-1.84 34.05a1 1 0 0 1-.65.18c-1.7 0-5.44-1.92-9.62-6.13-5.32-5.36-6.67-9.61-5.91-10.38a.9.9 0 0 0 .21-.31l15.08-15.19c.71 2.9 3.42 6.66 6.5 9.76 3.44 3.47 7.08 5.89 9.73 6.54ZM30.85 57.22c-2.75-2.78-3.55-4.9-3.48-5.3l.58-.58a15.9 15.9 0 0 0 3.6 5.09 16.33 16.33 0 0 0 5 3.61l-.48.48c-.39.18-2.5-.6-5.22-3.3Zm9.68-7.83-2.47 9c-.68 0-2.63-.91-5.07-3.36s-3.33-4.5-3.37-5.12l9.06-2.49.11.11c.2.24.4.48.62.7l.31.32.29.26Zm8.6 1a11.08 11.08 0 0 1-7.7-2.94l-1.21-1.27a11.8 11.8 0 0 1 .15-14.85c.7 2.89 3.42 6.67 6.5 9.77 3.42 3.44 7 5.85 9.67 6.53a11.53 11.53 0 0 1-7.41 2.75Zm35.53-46.3-.33 1c-1.64 4.83-4.9 14.41-6.96 19.59a28.81 28.81 0 0 0-6-8.36 27.67 27.67 0 0 0-8.38-6.09c5.38-2.16 15.52-5.72 20.05-7.31l.33-.11a1 1 0 0 1 1.12.28.91.91 0 0 1 .17 1Zm10.86 32.49a1 1 0 0 1 0-1.41l15.67-15.89a1 1 0 0 1 1.43 1.4L96.93 36.57a1 1 0 0 1-.71.3 1 1 0 0 1-.7-.29ZM17 71.15a1 1 0 0 1 0 1.42l-9.86 9.94a1 1 0 0 1-.71.3 1 1 0 0 1-.71-.29 1 1 0 0 1 0-1.42l9.87-9.94a1 1 0 0 1 1.41-.01Zm69.22-39.23a1 1 0 0 1 0 1.41l-9.06 9a1 1 0 0 1-.71.3 1 1 0 0 1-.71-.3 1 1 0 0 1 0-1.41l9.06-9a1 1 0 0 1 1.42 0Zm-4.29 45.36a1 1 0 0 1 0 1.41l-8 8a1 1 0 0 1-1.42 0 1 1 0 0 1 0-1.41l8-8a1 1 0 0 1 1.42 0Zm-4.46-24.09L61.79 68.98a1 1 0 0 1-.71.3 1 1 0 0 1-.71-1.71l15.68-15.78a1 1 0 1 1 1.42 1.4ZM34.72 25.34l11.71-11.89a1 1 0 0 1 1.42 1.4l-11.7 11.9a1 1 0 0 1-.72.29 1 1 0 0 1-.71-1.7ZM5.78 54.01a2 2 0 0 0 1.59 2.42 1.78 1.78 0 0 0 1.51-.3 1 1 0 0 1 1.41.13 1 1 0 0 1-.13 1.4 3.63 3.63 0 0 1-2.33.83 3.8 3.8 0 0 1-.89-.11 4 4 0 0 1-3.09-4.74 1 1 0 0 1 1.17-.8 1 1 0 0 1 .76 1.17Zm3.77-3.76a.64.64 0 0 0-.42-.31.5.5 0 0 0-.39.08.93.93 0 0 0-.32.56 1 1 0 0 1-1 .76h-.25a1 1 0 0 1-.73-1.21 3 3 0 0 1 1.09-1.69 2.5 2.5 0 0 1 2-.43 2.7 2.7 0 0 1 1.73 1.21 1 1 0 0 1-.33 1.38 1 1 0 0 1-1.38-.35Zm8.43-4.92a4.16 4.16 0 0 0-1.2.84c-1.47 1.3-3 2.21-6.57.28a6.24 6.24 0 0 0-4.72.47 6.57 6.57 0 0 0-3.2 3.92 6.44 6.44 0 0 0 4.33 8.08 6.52 6.52 0 0 0 6.67-2l.24-.64a4.24 4.24 0 0 1 .23-.59 1 1 0 0 1 1.84.76l-.18.48a3.41 3.41 0 0 0 1.95 4.08 3.25 3.25 0 0 0 2.52.1 3.45 3.45 0 0 0 1.95-1.86 1 1 0 1 1 1.82.83 5.44 5.44 0 0 1-3.06 2.9 5.13 5.13 0 0 1-1.85.34 5.3 5.3 0 0 1-2.22-.49 5.47 5.47 0 0 1-3-3.4 8.51 8.51 0 0 1-7.44 1.4A8.41 8.41 0 0 1 .37 50.25a8.55 8.55 0 0 1 4.17-5.11 8.29 8.29 0 0 1 6.35-.58l.18.08c2.73 1.5 3.38.91 4.37 0a5.8 5.8 0 0 1 1.81-1.22 5 5 0 0 1 6.48 2.92 1 1 0 0 1-.56 1.3 1 1 0 0 1-1.3-.56 3 3 0 0 0-3.89-1.75Zm19.61 33.73a.55.55 0 0 0 .06-.39.63.63 0 0 0-.3-.42 1 1 0 1 1 1.02-1.7 2.68 2.68 0 0 1 1.21 1.73 2.54 2.54 0 0 1-.41 2 3 3 0 0 1-1.69 1.11h-.25a1.008 1.008 0 0 1-.25-2 .94.94 0 0 0 .61-.33ZM18.91 50a.75.75 0 0 0 .32 1.1 1 1 0 0 1 .39 1.36 1 1 0 0 1-.88.52 1 1 0 0 1-.49-.13 2.77 2.77 0 0 1-1.1-3.82 1.012 1.012 0 0 1 1.76 1Zm15.88 32.85a1 1 0 0 1-.8 1.17 3.81 3.81 0 0 1-.75.07 4.18 4.18 0 0 1-2.33-.71 3.91 3.91 0 0 1-1.65-2.52 3.7 3.7 0 0 1 .73-3.18 1 1 0 1 1 1.53 1.24 1.75 1.75 0 0 0-.3 1.48 1.92 1.92 0 0 0 .82 1.28 2.05 2.05 0 0 0 1.58.33 1 1 0 0 1 1.17.84Zm9.32-12.38a5.89 5.89 0 0 1-1.21 1.83c-.88 1-1.46 1.66 0 4.42a1.42 1.42 0 0 1 .08.18 8.42 8.42 0 0 1-5.61 10.58 8.55 8.55 0 0 1-2.49.38 8.17 8.17 0 0 1-3.85-1 8.52 8.52 0 0 1-4.17-5.11 8.68 8.68 0 0 1 1.39-7.52l-.32-.11a5.46 5.46 0 0 1-.33-10.07 1.02 1.02 0 1 1 .82 1.87 3.4 3.4 0 0 0-1.74 4.52 3.52 3.52 0 0 0 2 1.86 3.24 3.24 0 0 0 2.11 0l.47-.18a1 1 0 0 1 .77 1.84 4.66 4.66 0 0 1-.58.23l-.64.25a6.61 6.61 0 0 0-2 6.75 6.52 6.52 0 0 0 3.18 3.9 6.26 6.26 0 0 0 4.82.44 6.43 6.43 0 0 0 4.35-8c-1.92-3.62-1-5.13.28-6.6a4.2 4.2 0 0 0 .84-1.21 2.92 2.92 0 0 0-1.72-3.8 1 1 0 1 1 .75-1.85 4.91 4.91 0 0 1 2.8 6.4Zm-5.15-1.25a1 1 0 0 1-.39 1.36 2.82 2.82 0 0 1-1.39.38 3 3 0 0 1-.73-.1 2.88 2.88 0 0 1-1.69-1.38 1.012 1.012 0 0 1 1.76-1 .74.74 0 0 0 1.08.33 1 1 0 0 1 1.36.41Zm21.61-37.85a4.07 4.07 0 1 1-4.07-4.1 4.08 4.08 0 0 1 4.07 4.1Zm50.35 21.61a7.83 7.83 0 0 0-6.94 4.24L87.69 67.49a1 1 0 0 0-.32 1.43 1 1 0 0 0 1.38.31l14.38-9.06v.73a7.86 7.86 0 0 0 2.54 5.8l-7.3 9.22a1 1 0 1 0 1.56 1.24l7.39-9.34a7.7 7.7 0 0 0 3.64.91 7.5 7.5 0 0 0 1.9-.24l-5.34 17.43a1 1 0 1 0 1.91.58l5.81-19.05.15-.11a1 1 0 0 0 .36-.27 7.87 7.87 0 0 0-4.83-14Zm0 13.74a5.68 5.68 0 0 1-3.18-1l-.07-.06-.18-.11a5.87 5.87 0 0 1-2.39-4.74v-.63l8 6a5.61 5.61 0 0 1-2.18.54Zm4-1.63-9.17-6.9v-.11a5.83 5.83 0 1 1 9.14 7ZM1.73 23.12a4.17 4.17 0 0 0 .83.08c2 0 5.16-1.15 8.64-2.83a10.63 10.63 0 0 0 6.42 2.16A10.8 10.8 0 0 0 28.18 9.61c3.92-3.15 7.43-6.69 6.26-8.69S28.05.73 23.78 2.83a10.61 10.61 0 0 0-6.16-2A10.82 10.82 0 0 0 6.99 13.4c-8 6.42-6.93 8.19-6.52 8.84a2 2 0 0 0 1.26.88Zm24.64-11.43a8.82 8.82 0 0 1-8.77 8.84 8.63 8.63 0 0 1-4.37-1.18c2.25-1.17 4.54-2.5 6.63-3.84 1.06-.67 3.71-2.39 6.47-4.47.04.21.04.42.04.65ZM32.67 2c-.16.76-1.78 2.75-5.13 5.53a10.8 10.8 0 0 0-2.14-3.29c4.27-1.99 6.62-2.39 7.29-2.24Zm-15.07.84a8.65 8.65 0 0 1 5.26 1.78 1.2 1.2 0 0 0 .38.29 8.83 8.83 0 0 1 2.67 3.94c-1.92 1.49-4.27 3.16-7.1 5a84 84 0 0 1-7.31 4.2 8.85 8.85 0 0 1 6.12-15.21ZM7.56 15.52a10.65 10.65 0 0 0 2.06 3.4c-4 1.83-6.6 2.5-7.38 2.27.13-.57 1.29-2.36 5.32-5.67Zm104.24-2.31a5.62 5.62 0 1 0-5.58-5.62 5.6 5.6 0 0 0 5.58 5.62Zm0-9.23a3.62 3.62 0 1 1-3.58 3.61 3.6 3.6 0 0 1 3.58-3.61Z"></path></svg>