<svg class="styles_item__icon___4gR9" xmlns="http://www.w3.org/2000/svg" viewBox="0 0 120 88"><path d="M120 15.34a15.35 15.35 0 0 0-30.59-1.76L71.16 19h-.14a1.34 1.34 0 0 0-.28.18l-2.4 2.4c-1.62 1.62-1.41 4.62.62 8.69.2.39.41.79.63 1.19l-7.49 7.56a3.9 3.9 0 0 0 0 5.63l13.25 13.24a3.9 3.9 0 0 0 5.63 0l7.52-7.48a15.37 15.37 0 0 0 6.94 2.33 4 4 0 0 0 2.94-1.07l2.4-2.41a.88.88 0 0 0 .2-.3v-.07l5.41-18.26A15.36 15.36 0 0 0 120 15.34ZM99.17 47.95c-1.88 1.39-8.86-1.28-16.77-8.94l12.1-12.15a15.21 15.21 0 0 0 9.76 3.81Zm-6-22.5L80.98 37.6c-7.65-7.91-10.33-14.89-8.94-16.77l17.28-5.13a15.29 15.29 0 0 0 3.81 9.75Zm-13.57 31a1.92 1.92 0 0 1-2.8 0L63.5 43.23a1.92 1.92 0 0 1 0-2.8l7.12-7.12a53.91 53.91 0 0 0 7.24 8.85 53.83 53.83 0 0 0 8.83 7.2Zm-.29-15.76a45.55 45.55 0 0 1-8.57-11.23c-1.51-3-1.89-5.46-1-6.37.56 4.56 5.14 11.25 10.53 16.64s12.08 10 16.64 10.54c-1.74 1.65-9.25-1.11-17.64-9.55Zm25.38-12a13.32 13.32 0 0 1-7.27-2.16l3.56-3.56a2.708 2.708 0 0 0-3.85-3.81l-3.58 3.58a13.34 13.34 0 1 1 11.1 6Zm6.62-15.75a4.21 4.21 0 0 1-4.25 4.22 4.22 4.22 0 1 1 4.21-4.21Zm-34.61 39a1 1 0 0 1 0 1.41 1 1 0 0 1-1.41 0l-8.63-8.62a1 1 0 0 1 0-1.42 1 1 0 0 1 1.41 0Zm-5.86-10.21 7.43 7.43a1 1 0 0 1 0 1.42 1 1 0 0 1-1.42 0l-7.42-7.42a1 1 0 0 1 1.41-1.41Zm-39 12.37a1.001 1.001 0 0 1 1.91-.6c.12.38 2.88 9.32.21 13.76a1 1 0 0 1-1.37.34 1 1 0 0 1-.34-1.37c1.83-3.07.33-9.79-.41-12.13Zm7.33 2.37a2 2 0 1 1 1.95 2 2 2 0 0 1-1.95-2ZM73.06 67.9H61.87a4.73 4.73 0 0 0-4.57 3.64l-.1.43a4.17 4.17 0 0 0-.69-.55 7.46 7.46 0 0 0-4.89-.73l-1.91-14.47a10.67 10.67 0 0 0-10.54-9.17h-.16a14.76 14.76 0 1 0-23.15-14.89c-2.95-1.72-6.36-4-9.36-4.24-5.85-.51-10.06 16.33-2.15 18.39 4.15 1 9 .17 14.15-2.41a14.62 14.62 0 0 0 3.18 3.15H16.5a8.6 8.6 0 0 0-8.26 11l4.52 15.31a13.86 13.86 0 0 0 1.63 3.53l-1.76 10a1 1 0 0 0 .81 1.15.55.55 0 0 0 .18 0 1 1 0 0 0 1-.83l1.45-8.22a13.66 13.66 0 0 0 9.52 4.17l14.38.31.25 3.79a1 1 0 0 0 1 .93h.07a1 1 0 0 0 .93-1.03l-.24-3.61 2.42.05h9.1l2.2 1.56c2.06 2 8 2 10.07 0l1.67-1.67h7a1 1 0 0 0 1-.75l2.26-8.83a4.62 4.62 0 0 0-.77-4 4.88 4.88 0 0 0-3.87-2.01ZM32.63 45.16a.87.87 0 0 0-.28 0 1.11 1.11 0 0 0-.19.09c-1.66-.09-3.37-2.18-3.77-3.09-.05-.17-.08-.29-.09-.31l-1.06-3.25a16.66 16.66 0 0 1 6.79-2.4l.31.06c-.17 4.54-1 8.21-1.71 8.9Zm-4.13.37a6.61 6.61 0 0 0 2.43 1.48h-2.89a5.42 5.42 0 0 0 .46-1.48Zm1.83-23.18a12.74 12.74 0 0 1 5.08 24.44 12.22 12.22 0 0 1-1.19-.55c1.58-2 2-6.82 2.12-9.76 4.19-.22 3.48-5 .46-8.15-7.09-6.88-11.91 2.47-14.48 5.34-1 1.08-2.61.61-4.6-.42a12.77 12.77 0 0 1 12.61-10.9Zm-10 20.6c.64-.36 1.29-.75 1.94-1.16 1-.68 2.13-1.41 3.26-2.11l.9 2.76v.15l.08.21c.17.8.47 2.91-.86 4.15a12.6 12.6 0 0 1-5.37-4Zm5.3 38.21a11.77 11.77 0 0 1-9.25-4.84 1 1 0 0 0-.32-.47 11.52 11.52 0 0 1-1.41-3l-4.52-15.33a6.6 6.6 0 0 1 6.37-8.47h22.7a8.67 8.67 0 0 1 8.56 7.45l2.05 15.51a1 1 0 0 0 .44.7 1 1 0 0 0 .83.13c.76-.21 3-.59 4.41.28a2.6 2.6 0 0 1 1.09 1.54l-.73 3-3.35-.26a6 6 0 0 0-6.79-3.11l-1 .21a4.33 4.33 0 0 1-2.53-.18l.76-10.38a1 1 0 0 0-.92-1.07 1 1 0 0 0-1.07.92l-.67 9.11-.45-.44a6 6 0 0 0-6.52-1.73l-2.16.72a4.18 4.18 0 0 1-4.23-.86 4 4 0 0 1-1.14-4.07 6.68 6.68 0 0 0-1.35-5.46l-4.11-4.82a1 1 0 1 0-1.52 1.29l4.1 4.82a4.69 4.69 0 0 1 .93 3.74 6 6 0 0 0 1.73 6 6.12 6.12 0 0 0 6.23 1.28l2.18-.73a4 4 0 0 1 4.4 1.21l.77.76a5.47 5.47 0 0 0 1.36 1.15.94.94 0 0 0 .22.12 6.23 6.23 0 0 0 4.35.57l1.08-.21a4.09 4.09 0 0 1 4.76 2.42l.1.31a1 1 0 0 0 1 .69 1.19 1.19 0 0 0 .32 0 1.09 1.09 0 0 0 .33-.19l2.66.24-.38 1.72v.18H44.43Zm50.06-7.8-2.07 8.1H56.97l1.4-5.83a1 1 0 0 0 .27-.84.5.5 0 0 1 0-.13l.63-2.64a2.73 2.73 0 0 1 2.63-2.12h11.12a2.91 2.91 0 0 1 2.22 1.19 2.64 2.64 0 0 1 .45 2.27Zm-9.4-61.33a1 1 0 0 1 0-1.42L76.63.38a1 1 0 1 1 1.41 1.42L67.71 12.03a1 1 0 0 1-.71.29 1 1 0 0 1-.71-.29ZM29.9 8.82a1 1 0 0 1 1-1h8a1 1 0 0 1 0 2h-8a1 1 0 0 1-1-1Zm-21.07 0a1 1 0 0 1 1-1h14.05a1 1 0 0 1 0 2h-14a1 1 0 0 1-1.05-1Zm.2 8.42h28.59a8.29 8.29 0 0 0 8.33-8.22v-.66a8.3 8.3 0 0 0-8.3-8.27H8.98A8.31 8.31 0 0 0 .7 8.41v.56a8.27 8.27 0 0 0 2.45 5.86 8.43 8.43 0 0 0 5.88 2.41ZM2.7 8.41a6.32 6.32 0 0 1 6.33-6.32h28.62a6.3 6.3 0 0 1 6.3 6.32v.61a6.13 6.13 0 0 1-1.86 4.4 6.34 6.34 0 0 1-4.46 1.82H9a6.32 6.32 0 0 1-6.3-6.32Zm103.35 68a1 1 0 0 1 0 1.41L95.71 88.04a1 1 0 0 1-.71.28 1 1 0 0 1-.71-.29 1 1 0 0 1 0-1.42l10.33-10.23a1 1 0 0 1 1.43.01Zm-1.9-19L93.82 67.72a1 1 0 0 1-1.42-1.41l10.34-10.33a1 1 0 0 1 1.41 0 1 1 0 0 1 0 1.41Z"></path></svg>