<svg class="styles_item__icon___4gR9" xmlns="http://www.w3.org/2000/svg" viewBox="0 0 120 88"><path d="M115.93 27.09a14 14 0 0 0-3.91-2.64c-2.13-.89-3.28-.31-3.87.33L73.11 63l-.06-10h5.38a4 4 0 0 0 4-4V10.43a4 4 0 0 0-4-4h-55a4 4 0 0 0-4 4v13.33h-5.61a4 4 0 0 0-4 4V41.7H4.01a4 4 0 0 0-4 4v38.59a4 4 0 0 0 4 4h55a4 4 0 0 0 3-1.32.85.85 0 0 0 .35-.08l14.53-6.71a1.19 1.19 0 0 0 .31-.18l15.82-17.31.08-.09 25.67-28c.48-.53 1.12-1.72 0-3.85a14 14 0 0 0-2.84-3.66ZM91.07 54.16a14.51 14.51 0 0 0 4.39 2.91l-2.36 2.57a14.6 14.6 0 0 0-3.28-4.15 14.32 14.32 0 0 0-4.45-2.94l2.4-2.61a14.41 14.41 0 0 0 3.3 4.22Zm-1.73-5.7c.61 0 2.31.74 4.44 2.69s3 3.68 3.09 4.23c-.61 0-2.31-.73-4.44-2.69-2.18-2.01-2.99-3.69-3.09-4.23Zm-5.31 5.81c.61 0 2.31.74 4.44 2.69s3 3.69 3.09 4.23c-.6 0-2.31-.73-4.44-2.69-2.18-2-2.99-3.68-3.09-4.23Zm-62.6-43.84a2 2 0 0 1 2-2h55a2 2 0 0 1 2 2V12h-59Zm0 3.6h59V49a2 2 0 0 1-2 2h-5.39l-.12-23.25a4 4 0 0 0-4-4H21.43Zm-9.61 13.74a2 2 0 0 1 2-2h55.09a2 2 0 0 1 2 2v1.7H11.82Zm0 3.7h59.12l.18 33.66-3.06 3.33-5.06-.1V45.71a4 4 0 0 0-4-4H11.82Zm54.45 39.06L63 79.84v-9.48l3.33.07a.33.33 0 0 0-.06.1ZM2 45.71a2 2 0 0 1 2-2h55a2 2 0 0 1 2 2v1.6H2ZM59 86.3H42.55a15 15 0 0 0-7.49-5.21c-4.71-1.21-12.92 2.3-16.43-3.51a6.65 6.65 0 0 0-1.76-1.91h12.18a1 1 0 1 0 0-2H12.56A38.08 38.08 0 0 0 2 72.53V49.31h59v35a2 2 0 0 1-2 1.99Zm16.82-7.84-1.14.54a11.15 11.15 0 0 1-7-6.51l.39-1.09 4.65-5.08a.81.81 0 0 0 .18-.19l9.53-10.38a16.83 16.83 0 0 0 7.68 7.14Zm41.54-45.26L98.42 53.84a14.67 14.67 0 0 0-3.29-4.16 14.38 14.38 0 0 0-4.43-2.93l18.92-20.61c.21-.23.85-.17 1.63.16a13.76 13.76 0 0 1 5.83 5.33c.37.73.49 1.37.28 1.57Zm-12.28 7.7a1.91 1.91 0 1 1-1.88-1.9 1.91 1.91 0 0 1 1.88 1.9Zm8-7.47a2.81 2.81 0 1 1-2.88-2.86h.11a2.8 2.8 0 0 1 2.73 2.86Zm-83 34.73a1 1 0 0 1-1 1H8.91a1 1 0 0 1 0-2h20.14a1 1 0 0 1 1 1Zm22.79-15.58H37.54a1.05 1.05 0 0 0-.49.13l-.14.08a1 1 0 0 0-.37 1.21v22.29a1 1 0 0 0 .37 1.22 1 1 0 0 0 .83.13h14.77a1.27 1.27 0 0 0 .28 0 1 1 0 0 0 .48-.12 1 1 0 0 0 .6-.91V53.58a1 1 0 0 0-1-1Zm-1.92 2-5.83 8.76-5.82-8.76Zm-12.41 2.47 5.38 8.1-5.38 8.1Zm.81 18.59L45.12 67l5.78 8.68Zm12.52-2.16-5.54-8.33 5.54-8.33ZM30.05 61.34a1 1 0 0 1-1 1H8.91a1 1 0 0 1 0-2h20.14a1 1 0 0 1 1 1ZM60.6 18.65a1 1 0 0 1-1 1H34.06a1 1 0 0 1 0-2H59.6a1 1 0 0 1 1 1Zm-9.92 18.44a1 1 0 0 1-1 1H38.2a1 1 0 0 1 0-2h11.48a1 1 0 0 1 1 1ZM120.43 1v9.92a1 1 0 1 1-2 0v-7.1l-15.52 15.53a1 1 0 0 1-1.42 0 1 1 0 0 1 0-1.42L117.42 2h-8a1 1 0 0 1 0-2h10a1 1 0 0 1 1.01 1ZM21.04 37.49a3 3 0 0 1-3 3 3 3 0 1 1 3-3ZM71.2 19.5a3 3 0 0 1 3-3.06 3 3 0 1 1-3 3.06Zm40 49.5h-6a5 5 0 0 0-5 5v6a5 5 0 0 0 5 5h6a5 5 0 0 0 5-5v-6a5 5 0 0 0-5-5Zm3 11a3 3 0 0 1-3 3h-6a3 3 0 0 1-3-3v-6a3 3 0 0 1 3-3h6a3 3 0 0 1 3 3Zm-3-3a3 3 0 1 1-3-3 3 3 0 0 1 3 3Z"></path></svg>