<svg class="styles_item__icon___4gR9" xmlns="http://www.w3.org/2000/svg" viewBox="0 0 120 88"><path d="M25.76 6.7 14.95 17.59a1.16 1.16 0 0 0-.27.18 2.32 2.32 0 0 0-.3.4l-.4.4a9.2 9.2 0 0 0-2.71 6.33 8.78 8.78 0 0 0 .93 4.2l-5.26 1.4a1 1 0 0 0-.51.33c-1.06 1.27.37 3.75 2.26 5.64a11.93 11.93 0 0 0 2.84 2.18 3.77 3.77 0 0 0 1.68.48 1.66 1.66 0 0 0 1.19-.46 1 1 0 0 0 .25-.44l1.48-5.24a9.07 9.07 0 0 0 10.56-1.72L38.48 19.4l.1-.1c.71-.72 2.23-4.7 6-15.82a2.12 2.12 0 0 0-.41-2.28 2.36 2.36 0 0 0-2.43-.64c-6.73 2.24-14.95 5.11-15.88 6l-.09.09Zm.19 4.1a19.42 19.42 0 0 0 3.65 4.79 17.48 17.48 0 0 0 5.82 4.07l-9.14 9.21a.91.91 0 0 0-.24.16c-.56.25-3.21-.86-6.12-3.76s-3.9-5.32-3.8-6l9.42-9.51a9.24 9.24 0 0 0 .41 1.04Zm-13 26.27a8.45 8.45 0 0 1-2.8-2 8.2 8.2 0 0 1-2-2.8l5.18-1.37 1 1Zm2.5-7-.2-.2a6.63 6.63 0 0 1-1.93-4.91 7.23 7.23 0 0 1 1.22-3.86 18.17 18.17 0 0 0 4 5.59 19.6 19.6 0 0 0 4.79 3.62 8.38 8.38 0 0 0 1 .42 7.07 7.07 0 0 1-8.93-.67Zm27-27.6h.11a.36.36 0 0 1 .25.1.17.17 0 0 1 0 .19.58.58 0 0 0 0 .14c-1.18 3.46-4.77 14-5.53 15l-.07.07c-.57.23-3.21-.88-6.11-3.77s-4-5.56-3.79-6.08l.06-.07c.61-.57 6.97-2.92 14.98-5.59ZM83.6 22.78l-4 1.1a1 1 0 0 0-.45.25c-.33.33-.77 1.1 0 2.53a9.54 9.54 0 0 0 1.74 2.28c1.15 1.15 2.58 2.14 3.71 2.14a1.49 1.49 0 0 0 1.1-.44.94.94 0 0 0 .26-.44l1.07-3.9a7.17 7.17 0 0 0 3.21.77 7.35 7.35 0 0 0 5.26-2.23l9.49-9.44c.5-.51 1.38-2.6 4.82-12.64a2 2 0 0 0-.47-2.12 1.94 1.94 0 0 0-2.06-.49c-.12 0-11.63 3.78-12.7 4.84l-9.49 9.41a7.42 7.42 0 0 0-1.49 8.38Zm.58 6.19a6.91 6.91 0 0 1-1.91-1.44 7.23 7.23 0 0 1-1.45-1.92l3.84-1.05.58.58Zm6-3.9a5 5 0 0 1-3.58-1.54l-.18-.13a5.36 5.36 0 0 1-.82-6.37 15.34 15.34 0 0 0 3 4.12 14.41 14.41 0 0 0 4.33 3.11 5.33 5.33 0 0 1-2.78.81Zm7.3-12.67a14.23 14.23 0 0 0 4.5 3.18l-7 7a.68.68 0 0 0-.22.12c-.46.08-2.35-.65-4.64-2.94s-3-4-2.94-4.54l7.17-7.18a14.89 14.89 0 0 0 3.13 4.36Zm10.43-10.31c-.9 2.65-3.6 10.53-4.27 11.74l-.11.06c-.48.06-2.35-.65-4.64-2.94s-3-4-2.94-4.54c.81-.56 7.65-3.01 11.96-4.32ZM.69 43.86a1 1 0 0 1 0-1.41l5.8-5.8a1 1 0 0 1 1.41 0 1 1 0 0 1 0 1.42l-5.79 5.79a1 1 0 0 1-1.42 0Zm36-17a1 1 0 0 1 0 1.42L26.6 38.4a1 1 0 0 1-.71.29 1 1 0 0 1-.71-.29 1 1 0 0 1 0-1.42l10.08-10.12a1 1 0 0 1 1.42 0ZM5.6 22.08a1 1 0 0 1 0-1.41l7.6-7.5a1 1 0 0 1 1.4 1.43L7 22.09a1 1 0 0 1-1.42 0Zm97.81-1a1 1 0 0 1 0 1.41l-8 7.9a1 1 0 0 1-.7.29 1 1 0 0 1-.71-.3 1 1 0 0 1 0-1.42l8-7.89a1 1 0 0 1 1.39-.03Zm-24.9-3.48a1 1 0 0 1 0-1.42l6-6a1 1 0 0 1 1.41 1.41l-6 6a1 1 0 0 1-1.42 0Zm39.6 63a36.68 36.68 0 0 0-19-12.78V43.99a10.13 10.13 0 0 1 8.69 1.06c4.6 3 10.39-2 10.39-2v-11s-5.79 4.86-10.39 1.77a10.53 10.53 0 0 0-8.76-1 1 1 0 0 0-1.93.33v33.1L86.76 50.5a6.33 6.33 0 0 0 0-.76 7.9 7.9 0 0 0-7.8-8h-.16a7.94 7.94 0 0 0-8 7.8 7.7 7.7 0 0 0 .8 3.4l-2.55 19.25a1.34 1.34 0 0 0 0 .2 37.4 37.4 0 0 0-9.72 9.33 1 1 0 0 0 .81 1.59 1 1 0 0 0 .81-.41 35.23 35.23 0 0 1 10-9.36 8.85 8.85 0 0 1 3 1.08c5.29 2.9 6.09 7.89 11.79 5.19s9.09-9.19 16.48-7.49a28 28 0 0 0 4.11.73 34.55 34.55 0 0 1 10.09 8.77A1 1 0 0 0 118 80.6ZM95.23 66.94a35.54 35.54 0 0 0-6-.51h-.08a37.77 37.77 0 0 0-5.13.36l-2.11-9.83a8 8 0 0 0 4.16-3.92Zm-16.31-11.4h-.24a5.89 5.89 0 0 1-4.08-1.76l10-2.38a5.93 5.93 0 0 1-5.64 4.18Zm-.08-11.79h.15a5.92 5.92 0 0 1 5.81 5.49l-11.33 2.74a.84.84 0 0 0-.23-.23 6.06 6.06 0 0 1-.38-2.18 5.93 5.93 0 0 1 5.98-5.82Zm-5.56 11.58a7.88 7.88 0 0 0 5.39 2.21h.16a8.42 8.42 0 0 0 1.12-.07l2.07 9.65a35.84 35.84 0 0 0-10.81 4ZM113.6 82.7a3.7 3.7 0 1 1-3.69-3.7 3.69 3.69 0 0 1 3.69 3.7ZM95.7 81a3.5 3.5 0 1 0 3.5 3.5 3.5 3.5 0 0 0-3.5-3.5Zm0 5a1.5 1.5 0 1 1 1.5-1.5 1.5 1.5 0 0 1-1.5 1.5Zm3.72-13.28a2.79 2.79 0 0 0-2 4.77 2.8 2.8 0 0 0 2 .83 2.79 2.79 0 0 0 2-.82 2.79 2.79 0 0 0-2-4.78Zm.56 3.36a.8.8 0 0 1-.56.24.8.8 0 0 1-.57-.24.8.8 0 0 1 .57-1.36.79.79 0 0 1 .56 1.36Zm-16 9.82a1.9 1.9 0 1 1-1.9-1.9A1.9 1.9 0 0 1 84 85.9Zm-9.26-5.59a4.1 4.1 0 1 1-4.12-4.09 4.11 4.11 0 0 1 4.14 4.09Zm-52.74-7.19v11.89a1 1 0 0 1-2 0V73.12a1 1 0 0 1 2 0Zm24.56-14.19c-1.41 5.25-2.74 10.2-6.17 10.2-3.24 0-4.93-2.69-6.28-4.85s-2.12-3.25-3.41-3.25-2.42 2.25-3.48 4.43c-1.42 2.93-3 6.26-6.22 6.26-2.94 0-4.52-1.68-5.91-3.17-1.22-1.3-2.17-2.32-3.88-2.32-2.25 0-6.55 9.74-9.23 18.76a1 1 0 0 1-1 .72 1.35 1.35 0 0 1-.28 0 1 1 0 0 1-.64-1.31c1.41-4.73 6.38-20.19 11.15-20.19 2.58 0 4 1.57 5.34 3s2.37 2.54 4.45 2.54 3.2-2.61 4.42-5.13c1.32-2.73 2.69-5.56 5.28-5.56s3.82 2.13 5.11 4.19 2.44 3.91 4.58 3.91c1.9-.03 3.23-4.86 4.23-8.76 1.25-4.68 2.44-9.1 5.16-9.93a1.01 1.01 0 1 1 .59 1.93c-1.66.51-2.85 5-3.81 8.53ZM12.29 70.72v14.29a1 1 0 0 1-2 0V70.72a1 1 0 0 1 2 0Zm29.08 2.4v11.89a1 1 0 0 1-2 0V73.12a1 1 0 0 1 2 0Zm-9.69-8.19v20.38a1 1 0 0 1-2 0V64.93a1 1 0 0 1 2 0Zm9.49-36V48.4a1 1 0 0 0 .7.95 1 1 0 0 0 .3.05 1 1 0 0 0 .83-.44l3.6-5.41h17.85a4.1 4.1 0 0 0 4.09-4V28.97a4 4 0 0 0-4-4H45.16a4 4 0 0 0-3.99 4Zm2 0a2 2 0 0 1 2-2H64.6a2 2 0 0 1 2 2V39.5a2.09 2.09 0 0 1-2.1 2H46.06a1 1 0 0 0-.83.45l-2.06 3.07Zm8.29 30.86v25.72a1 1 0 0 1-2 0V59.83a1 1 0 1 1 2 0Zm-2.9-22a3 3 0 0 0 2.12-.88 2.94 2.94 0 0 0 .92-2.05 3 3 0 0 0-.88-2.12 3.09 3.09 0 0 0-4.24 0 3 3 0 0 0-.88 2.12 3 3 0 0 0 3 3Zm-.7-3.7a1 1 0 0 1 1.41 0 1 1 0 0 1-.71 1.7 1 1 0 0 1-.7-1.7Zm7.59 3.7a3 3 0 0 0 3-3 3 3 0 0 0-.85-2.05 3.09 3.09 0 0 0-4.25 0 3 3 0 0 0 2.12 5.12Zm-.7-3.7a1 1 0 1 1 .71 1.7 1 1 0 0 1-1-1 1 1 0 0 1 .29-.63Zm7.5 3.7a3 3 0 0 0 2.12-5.12 3.09 3.09 0 0 0-4.24 0 3 3 0 0 0 2.12 5.12Zm-.71-3.7a1 1 0 0 1 1.71.7 1 1 0 0 1-1 1 1 1 0 0 1-1-1 1 1 0 0 1 .29-.63Zm-4.09-26.2a3 3 0 0 1 3-3 3 3 0 1 1-3 3Z"></path></svg>