<svg xmlns="http://www.w3.org/2000/svg" width="48" height="48" fill="none"><g stroke="#2C2C2C" stroke-linecap="round" stroke-linejoin="round" stroke-miterlimit="10" stroke-width="2" clip-path="url(#a)"><path d="M34.164 47H2.836C1.856 47 1 46.135 1 45.003V2.997C1 1.932 1.795 1 2.836 1h31.328C35.144 1 36 1.865 36 2.997v42.006C36 46.135 35.205 47 34.164 47ZM36 8h9.368C46.29 8 47 8.6 47 9.38v29.24c0 .78-.71 1.38-1.632 1.38H36M6.06 26.127H33M6.06 29.603H33M6.06 34.517h11.46M6.06 37.633h11.46M26.16 34.517h6.42M26.16 37.633h6.42"/><path d="M10.86 19.955a5.457 5.457 0 0 0 5.46-5.453 5.457 5.457 0 0 0-5.46-5.453 5.457 5.457 0 0 0-5.46 5.453 5.457 5.457 0 0 0 5.46 5.453Z"/><path d="m13.74 19.056-2.88-4.614 3.84-3.835M21.06 19.895V9.05M24.72 19.895v-7.071M28.8 19.895V9.768M37 16h5v18h-5"/></g><defs><clipPath id="a"><path fill="#fff" d="M0 0h48v48H0z"/></clipPath></defs></svg>
