<svg xmlns="http://www.w3.org/2000/svg" width="48" height="48" fill="none"><g stroke="#2C2C2C" stroke-miterlimit="10" stroke-width="2" clip-path="url(#a)"><path stroke-linecap="round" stroke-linejoin="round" d="M13 39.877V18h7.72c1.086 0 2.1.076 3.04.226.942.15 1.738.18 2.462.632.724.452 1.23.98 1.665 1.658.435.678.58 1.582.58 2.637 0 .527-.073.98-.218 1.507-.145.527-.29.98-.579 1.356a3.317 3.317 0 0 1-.869 1.13c-.362.301-.724.603-1.158.753v.151c.507.15 1.014.377 1.52.603.435.301.869.603 1.231 1.055.362.452.652.904.796 1.506.218.603.29 1.206.29 1.96 0 1.13-.217 2.109-.652 2.938a5.814 5.814 0 0 1-1.737 2.034c-.724.527-1.593 1.053-2.607 1.354-1.013.301-2.099.377-3.185.377H13ZM18 27h2.5c2.5 0 3.478-1.318 3.478-3 0-1.955-1.449-2-2.969-2H18v5Zm0 9h3.299c2.606 0 3.62-1.094 3.62-3.053 0-.98-.29-1.657-.941-2.11-.652-.451-1.665-.602-2.969-.602H18V36Z"/><path stroke-linecap="round" stroke-linejoin="round" d="M20 18H10v4h10M15.293 15v3.01M20.953 15v3.01M15 40v2.459M21 40v2.459M20 36H10v4h10"/><path stroke-linecap="round" stroke-linejoin="round" d="M19 47c9.941 0 18-8.059 18-18s-8.059-18-18-18S1 19.06 1 29s8.059 18 18 18ZM30 11.012C30 12.708 33.832 14 38.5 14s8.5-1.373 8.5-2.988V3.988C47 2.292 43.168 1 38.5 1S30 2.292 30 3.988v7.024Z"/><path stroke-linecap="round" stroke-linejoin="round" d="M30 4c0 1.703 3.832 3 8.5 3S47 5.622 47 4M30 8c0 1.135 3.832 2 8.5 2S47 9.081 47 8"/><path d="M35 42v6"/><path stroke-linecap="round" stroke-linejoin="round" d="M1 9h9l4-4h14m2 0h-2M1 1l2 2h7V1h14l4 4M31.5 47H47V36.5"/><path stroke-linecap="round" stroke-linejoin="round" d="M42 48V36.174l5-4.928V9"/></g><defs><clipPath id="a"><path fill="#fff" d="M0 0h48v48H0z"/></clipPath></defs></svg>
