<svg xmlns="http://www.w3.org/2000/svg" width="48" height="48" fill="none"><g stroke="#2C2C2C" stroke-linecap="round" stroke-linejoin="round" stroke-width="2" clip-path="url(#a)"><path d="M4 11.953V10a2 2 0 0 1 2-2h36a2 2 0 0 1 2 2v19a2 2 0 0 1-2 2h-1.158"/><path d="M8 8V3a2 2 0 0 1 2-2h35a2 2 0 0 1 2 2v22a2 2 0 0 1-2 2h-1.079"/><path d="M1 15a2 2 0 0 1 2-2h35.134a2 2 0 0 1 2 2v18a2 2 0 0 1-2 2H3a2 2 0 0 1-2-2V15Z"/><circle cx="21.179" cy="23.538" r="6.179"/><circle cx="6.5" cy="23.5" r="1.5"/><circle cx="34.5" cy="23.5" r="1.5"/><path d="M5 17h4.179M32 17h4.179M5 31h4.179M32 31h4.179M8 35v10a2 2 0 0 0 2 2h35.134a2 2 0 0 0 2-2V25"/><path d="M34.358 35.538a6.18 6.18 0 0 1-12.358 0M12 43h4.179M39 43h4.179M40 5h4.179M12 5h4.179"/></g><defs><clipPath id="a"><path fill="#fff" d="M0 0h48v48H0z"/></clipPath></defs></svg>
