<svg xmlns="http://www.w3.org/2000/svg" width="48" height="48" fill="none"><path stroke="#2C2C2C" stroke-linecap="round" stroke-linejoin="round" stroke-miterlimit="10" stroke-width="2" d="M6 33c0-4.966 4.034-9 9-9 4.965 0 9 4.034 9 9H6ZM15 23.5V22"/><path stroke="#2C2C2C" stroke-linecap="round" stroke-linejoin="round" stroke-miterlimit="10" stroke-width="2" d="M10 30s.386-2.714 3-3M4 33h22M15 47a4 4 0 1 0 0-8 4 4 0 0 0 0 8ZM38 47a4 4 0 1 0 0-8 4 4 0 0 0 0 8Z"/><path stroke="#2C2C2C" stroke-linecap="round" stroke-linejoin="round" stroke-miterlimit="10" stroke-width="2" d="M41.82 42H47v-8.76L40 27l-2.5-8h-9.42v23h5.04"/><path stroke="#2C2C2C" stroke-linecap="round" stroke-linejoin="round" stroke-miterlimit="10" stroke-width="2" d="M30 19V9H1v33h9.56M19 42h8.88"/><path stroke="#2C2C2C" stroke-linecap="round" stroke-linejoin="round" stroke-miterlimit="10" stroke-width="2" d="M9 9.1V19l6-2.8 7 2.8V9M40 27h-8v-5h6.216M46.7 33H32M41.82 35.64h4.38M47 6.543C47 9.573 41.5 18 41.5 18S36 9.574 36 6.543C36 3.513 38.493 1 41.5 1S47 3.44 47 6.543Z"/><path stroke="#2C2C2C" stroke-linecap="round" stroke-linejoin="round" stroke-miterlimit="10" stroke-width="2" d="M41.5 8a1.5 1.5 0 1 0 0-3 1.5 1.5 0 0 0 0 3ZM29.4 5H21M17 5h-5M28 1h-4M20 1H1"/></svg>
