<svg xmlns="http://www.w3.org/2000/svg" width="48" height="48" fill="none"><g stroke="#2C2C2C" stroke-linecap="round" stroke-linejoin="round" stroke-miterlimit="10" stroke-width="2" clip-path="url(#a)"><path d="M10.47 47c5.231 0 9.471-4.3 9.471-9.605 0-5.305-4.24-9.606-9.47-9.606S1 32.09 1 37.395C1 42.699 5.24 47 10.47 47Z"/><path d="M10.47 36.545c1.175 0 2.127-.965 2.127-2.156 0-1.19-.952-2.156-2.127-2.156-1.174 0-2.126.965-2.126 2.156 0 1.191.952 2.156 2.127 2.156ZM14.4 42.883c0-2.156-1.739-3.92-3.865-3.92-2.126 0-3.865 1.764-3.865 3.92H14.4ZM37.53 47c5.23 0 9.47-4.3 9.47-9.605 0-5.305-4.24-9.606-9.47-9.606-5.231 0-9.471 4.3-9.471 9.606 0 5.304 4.24 9.605 9.47 9.605Z"/><path d="M37.53 36.545c1.174 0 2.125-.965 2.125-2.156 0-1.19-.951-2.156-2.126-2.156-1.174 0-2.126.965-2.126 2.156 0 1.191.952 2.156 2.126 2.156ZM41.395 42.883c0-2.156-1.74-3.92-3.866-3.92-2.126 0-3.865 1.764-3.865 3.92h7.731ZM10.47 20.21c5.231 0 9.471-4.3 9.471-9.605C19.941 5.3 15.701 1 10.471 1S1 5.3 1 10.605c0 5.305 4.24 9.605 9.47 9.605Z"/><path d="M10.47 9.69c1.175 0 2.127-.965 2.127-2.156 0-1.191-.952-2.157-2.127-2.157-1.174 0-2.126.966-2.126 2.157 0 1.19.952 2.156 2.127 2.156ZM14.4 16.093c0-2.156-1.739-3.92-3.865-3.92-2.126 0-3.865 1.764-3.865 3.92H14.4ZM37.53 20.21c5.23 0 9.47-4.3 9.47-9.605C47 5.3 42.76 1 37.53 1c-5.231 0-9.471 4.3-9.471 9.605 0 5.305 4.24 9.605 9.47 9.605Z"/><path d="M37.53 9.69c1.173 0 2.125-.965 2.125-2.156 0-1.191-.952-2.157-2.126-2.157s-2.126.966-2.126 2.157c0 1.19.952 2.156 2.126 2.156ZM41.395 16.093c0-2.156-1.74-3.92-3.866-3.92-2.126 0-3.866 1.764-3.866 3.92h7.731ZM17.622 17.074l13.207 13.46M30.571 17.662l-12.95 13.133"/></g><defs><clipPath id="a"><path fill="#fff" d="M0 0h48v48H0z"/></clipPath></defs></svg>
