<svg xmlns="http://www.w3.org/2000/svg" width="48" height="48" fill="none"><g stroke="#2C2C2C" stroke-miterlimit="10" stroke-width="2" clip-path="url(#a)"><path stroke-linecap="round" stroke-linejoin="round" d="M19.867 47H4.133C2.4 47 1 45.614 1 43.898V17.102C1 15.386 2.4 14 4.133 14h15.734C21.6 14 23 15.386 23 17.102v26.796C23 45.548 21.6 47 19.867 47Z"/><path stroke-linecap="round" stroke-linejoin="round" d="M20.607 42H3.327C2.062 42 1 40.937 1 39.675v-13.35C1 25.063 2.063 24 3.326 24h17.348C21.937 24 23 25.063 23 26.325v13.35C22.933 40.937 21.87 42 20.607 42ZM12.846 10h-1.692C8.846 10 7 11.6 7 13.6c0 .2.23.4.462.4h9.076c.231 0 .462-.2.462-.4 0-2-1.846-3.6-4.154-3.6Z"/><path d="M6 24v18M8.737 24v18M16.263 24v18M19 24v18M12 21a2 2 0 1 0 0-4 2 2 0 0 0 0 4Z"/><path stroke-linecap="round" stroke-linejoin="round" d="M39.635 12.409c-1.13 0-2.117.808-2.47 1.836-.353-1.102-1.341-1.836-2.47-1.836-1.413 0-2.613 1.175-2.613 2.718 0 3.158 5.012 7.198 5.012 7.198s5.012-4.187 5.012-7.198c.07-1.47-1.059-2.718-2.47-2.718Z"/><path stroke-linecap="round" stroke-linejoin="round" d="M43.73 39H30.345C28.478 39 27 37.508 27 35.624V4.376C27 2.492 28.478 1 30.346 1H43.65c1.868 0 3.346 1.492 3.346 3.376v31.17C47.075 37.43 45.597 39 43.73 39Z"/><path stroke-linecap="round" stroke-linejoin="round" d="m42.294 2.226-.423.734c-.283.515-.847.808-1.412.808H33.54c-.564 0-1.059-.293-1.411-.808l-.424-.734M33.706 31.645h6.07M33.706 26.218h6.07"/></g><defs><clipPath id="a"><path fill="#fff" d="M0 0h48v48H0z"/></clipPath></defs></svg>
