<svg xmlns="http://www.w3.org/2000/svg" width="48" height="48" fill="none"><path stroke="#2C2C2C" stroke-linecap="round" stroke-linejoin="round" stroke-miterlimit="10" stroke-width="2" d="M14 47a2 2 0 1 0 0-4 2 2 0 0 0 0 4Zm20 0a2 2 0 1 0 0-4 2 2 0 0 0 0 4Z"/><path stroke="#2C2C2C" stroke-linecap="round" stroke-linejoin="round" stroke-miterlimit="10" stroke-width="2" d="M25.357 18h-24.2L1 27.566c0 1.857 1.14 3.415 3 3.715l33.24 5.543c.78.12 1.38.779 1.38 1.558C38.62 39.28 37.9 40 37 40H7a2 2 0 0 0-2 2v0a2 2 0 0 0 2 2h5m4 0h16m4 0h9v-5.618M37 22h7m-10 4h10m-12 6h12"/><path stroke="#2C2C2C" stroke-linecap="round" stroke-linejoin="round" stroke-miterlimit="10" stroke-width="2" d="m28.38 33.199-6.78-3.296c-.9-.42-1.26-1.498-.84-2.397l8.4-17.139c.42-.899 1.5-1.258 2.4-.839l6.84 3.356c.9.42 1.26 1.498.84 2.397l-8.4 17.138c-.48.84-1.56 1.259-2.46.78Z"/><path stroke="#2C2C2C" stroke-linecap="round" stroke-linejoin="round" stroke-miterlimit="10" stroke-width="2" d="M31.38 21.453c1.59 0 2.88-1.288 2.88-2.876a2.878 2.878 0 0 0-2.88-2.877 2.878 2.878 0 0 0-2.88 2.877 2.878 2.878 0 0 0 2.88 2.876Zm-6.01 4.722 3.71 1.762c.333.14.713.047.856-.278.142-.324.047-.695-.286-.834l-3.709-1.762c-.333-.14-.713-.047-.856.278-.19.278-.047.695.285.834ZM45 18.038h-7.2M8 22h15M8 26h13m.34-12H2.6c-.889 0-1.6-.867-1.6-1.95v-9.1C1 1.867 1.712 1 2.601 1H21.4c.889 0 1.6.867 1.6 1.95v9.172C22.94 13.133 22.23 14 21.34 14ZM1 8h22M1 10h22M4 4h2.4m3 0h1.8M45 41V15l2-2"/></svg>
