<svg xmlns="http://www.w3.org/2000/svg" width="48" height="48" fill="none"><path stroke="#2C2C2C" stroke-linecap="round" stroke-linejoin="round" stroke-miterlimit="10" stroke-width="2" d="M1 25h46M2.8 47h42.4c.993 0 1.8-.857 1.8-1.912V18.912C47 17.857 46.193 17 45.2 17H2.8c-.993 0-1.8.857-1.8 1.912v26.242C1 46.209 1.807 47 2.8 47Z"/><path stroke="#2C2C2C" stroke-width="2" d="m21.482 30.039.021.013.022.012 4.15 2.324 4.14 2.317c.142.086.185.2.185.295 0 .095-.043.21-.186.295l-4.139 2.317-4.15 2.324-.008.004-.008.005c-.247.145-.509-.026-.509-.269v-9.352c0-.102.055-.207.177-.276.122-.068.23-.057.305-.01Z"/><path stroke="#2C2C2C" stroke-linecap="round" stroke-linejoin="round" stroke-miterlimit="10" stroke-width="2" d="M6 25v22M9.5 22a.5.5 0 1 0 0-1 .5.5 0 0 0 0 1ZM5.5 22a.5.5 0 1 0 0-1 .5.5 0 0 0 0 1ZM13.5 22a.5.5 0 1 0 0-1 .5.5 0 0 0 0 1ZM6.12 11.22h35.46M42 17V8.278C42 7.556 41.396 7 40.61 7H7.39C6.603 7 6 7.556 6 8.278V17M10 12v5M15 7V2"/><path stroke="#2C2C2C" stroke-linecap="round" stroke-linejoin="round" stroke-miterlimit="10" stroke-width="2" d="M39 7V1.776C39 1.353 38.46 1 37.813 1H10.187C9.54 1 9 1.353 9 1.776V6.93"/></svg>
