<svg xmlns="http://www.w3.org/2000/svg" width="48" height="48" fill="none"><g clip-path="url(#a)"><path stroke="#2C2C2C" stroke-linecap="round" stroke-linejoin="round" stroke-miterlimit="10" stroke-width="2" d="M28.42 29.24h-8.802c-3.233 0-5.748-2.35-5.748-5.372V6.405h20.297V23.7c0 3.022-2.515 5.54-5.748 5.54Z"/><path fill="#2C2C2C" d="M24.167 38.527c1.32 0 2.389-1.084 2.389-2.421 0-1.337-1.07-2.421-2.39-2.421-1.319 0-2.388 1.084-2.388 2.421 0 1.337 1.07 2.421 2.389 2.421Z"/><path stroke="#2C2C2C" stroke-linecap="round" stroke-linejoin="round" stroke-miterlimit="10" stroke-width="2" d="M23.986 29.24v15.222M16.407 44.463H31.63M38.747 38.872 46.885 47M9.138 38.872 1 47"/><path fill="#2C2C2C" d="M24.029 19.158a2.942 2.942 0 0 0 2.943-2.94 2.942 2.942 0 0 0-2.944-2.94 2.942 2.942 0 0 0-2.943 2.94 2.942 2.942 0 0 0 2.944 2.94Z"/><path stroke="#2C2C2C" stroke-linecap="round" stroke-linejoin="round" stroke-miterlimit="10" stroke-width="2" d="m1 1 5.887 5.88M46.885 1l-5.887 5.88M6.195 24.174H1M46.885 24.174H41.69"/></g><defs><clipPath id="a"><path fill="#fff" d="M0 0h48v48H0z"/></clipPath></defs></svg>
