<svg xmlns="http://www.w3.org/2000/svg" width="48" height="48" fill="none"><g stroke="#2C2C2C" stroke-linecap="round" stroke-linejoin="round" stroke-miterlimit="10" stroke-width="2" clip-path="url(#a)"><path d="M28.385 47h-8.77v-9.42c0-2.451 1.956-4.451 4.353-4.451 2.398 0 4.354 2 4.354 4.452V47h.063ZM16 26H3v4h13v-4ZM16 43H3v4h13v-4ZM13 30H5v13h8V30ZM45 26H33v4h12v-4ZM45 44H33v3h12v-3ZM43 30h-8v14h8V30ZM24.031 23.387c1.43 0 2.588-1.184 2.588-2.645 0-1.46-1.159-2.645-2.588-2.645-1.428 0-2.587 1.184-2.587 2.645s1.159 2.645 2.587 2.645ZM1 47h46M1 26h46"/><path d="m11 26 13.032-13L37 26M2 26l8-8h9"/><path d="m46 26-8-8h-9M33 4h6m-6 3h6m2 4h-9.72L29 14.5V2.738C29 1.778 29.78 1 30.74 1H41c.96 0 1.74.779 1.74 1.738v6.524C42.68 10.281 41.9 11 41 11Z"/></g><defs><clipPath id="a"><path fill="#fff" d="M0 0h48v48H0z"/></clipPath></defs></svg>
