<svg xmlns="http://www.w3.org/2000/svg" width="48" height="48" fill="none"><g stroke="#2C2C2C" stroke-linecap="round" stroke-linejoin="round" stroke-miterlimit="10" stroke-width="2" clip-path="url(#a)"><path d="M2.65 47h31.628c.957 0 1.722-.746 1.722-1.679V23.679c0-.933-.765-1.679-1.722-1.679H2.651c-.957 0-1.722.746-1.722 1.68V45.32c0 .933.765 1.68 1.722 1.68ZM1 26h34.816"/><path d="M22 43h9V30h-9v13ZM22 30l9 13M22 43l9-13M17 33H6M17 37H6M17 41H6"/><path d="M36 36h3.282c.954 0 1.718-.746 1.718-1.68V12.68c0-.933-.764-1.68-1.718-1.68H7.718C6.764 11 6 11.747 6 12.68v9.32M7 15h33"/><path d="M41.762 26.479h3.49c.952 0 1.714-.761 1.714-1.712V2.711c0-.95-.762-1.711-1.714-1.711H13.713C12.762 1 12 1.76 12 2.71v8.05M12 5h34.648M43 40h4v4M40 46.988l6.665-6.657M4 1h4v4M1 7.988 7.665 1.33"/></g><defs><clipPath id="a"><path fill="#fff" d="M0 0h48v48H0z"/></clipPath></defs></svg>
