<svg xmlns="http://www.w3.org/2000/svg" width="48" height="48" fill="none"><g clip-path="url(#a)"><path stroke="#2C2C2C" stroke-linecap="round" stroke-linejoin="round" stroke-miterlimit="10" stroke-width="2" d="M45.6 31H2.4c-.8 0-1.4-.642-1.4-1.349V2.35C1 1.643 1.6 1 2.4 1h43.2c.733 0 1.4.578 1.4 1.35V29.65c0 .707-.6 1.35-1.4 1.35ZM47 6H1M31 11h11M31 15h11M31 19h11M31 23h11M31 27h11"/><path stroke="#2C2C2C" stroke-linecap="round" stroke-linejoin="round" stroke-miterlimit="10" stroke-width="2" d="M16.735 20h-3.47C11.991 20 11 19.074 11 17.882V11h8v6.816C19 19.007 18.009 20 16.735 20Z"/><path fill="#2C2C2C" d="M15.058 23.66c.52 0 .942-.427.942-.954a.948.948 0 0 0-.942-.954.948.948 0 0 0-.941.954c0 .527.421.954.941.954Z"/><path stroke="#2C2C2C" stroke-linecap="round" stroke-linejoin="round" stroke-miterlimit="10" stroke-width="2" d="M14.987 20v6M12 26h6M20.805 23.796 24.013 27M9.135 23.796 5.927 27"/><path fill="#2C2C2C" d="M15.004 16.026a1.16 1.16 0 1 0 .002-2.319 1.16 1.16 0 0 0-.002 2.319Z"/><path stroke="#2C2C2C" stroke-linecap="round" stroke-linejoin="round" stroke-miterlimit="10" stroke-width="2" d="m5.927 8.869 2.32 2.318M24.013 8.869l-2.32 2.318M7.975 18.003H5.927M24.013 18.003h-2.047M3 44.016C3 45.65 6.819 47 11.5 47s8.5-1.35 8.5-2.984v-7.032C20 35.35 16.181 34 11.5 34S3 35.35 3 36.984v7.032Z"/><path stroke="#2C2C2C" stroke-linecap="round" stroke-linejoin="round" stroke-miterlimit="10" stroke-width="2" d="M3 37.055c0 1.633 3.819 2.983 8.5 2.983s8.5-1.35 8.5-2.983M3 40.464c0 1.634 3.819 2.984 8.5 2.984s8.5-1.35 8.5-2.984M28 44.016C28 45.65 31.819 47 36.5 47s8.5-1.35 8.5-2.984v-7.032C45 35.35 41.181 34 36.5 34S28 35.35 28 36.984v7.032Z"/><path stroke="#2C2C2C" stroke-linecap="round" stroke-linejoin="round" stroke-miterlimit="10" stroke-width="2" d="M28 37.055c0 1.633 3.819 2.983 8.5 2.983s8.5-1.35 8.5-2.983M28 40.464c0 1.634 3.819 2.984 8.5 2.984s8.5-1.35 8.5-2.984M8.04 31.22 8.1 34M40.56 31.22 40.5 34"/></g><defs><clipPath id="a"><path fill="#fff" d="M0 0h48v48H0z"/></clipPath></defs></svg>
