<svg xmlns="http://www.w3.org/2000/svg" width="48" height="48" fill="none"><g clip-path="url(#a)"><path stroke="#2C2C2C" stroke-miterlimit="10" stroke-width="2" d="M30.5 33.747s.24 5.613 1.794 6.33c1.554.716 4.005-1.911 4.065-3.583"/><path stroke="#2C2C2C" stroke-miterlimit="10" stroke-width="2" d="M36.18 37.27s.478 4.955 1.793 5.731M32.294 40.076v2.329M27.212 44.136s1.973-2.806 5.082-2.926"/><path stroke="#2C2C2C" stroke-miterlimit="10" stroke-width="2" d="M36.897 41.031s4.544.18 6.456 2.687M28.827 31.598s-.359 1.97 1.076 2.15c1.494.178 2.152-.717 3.108.656.385.552 1.34.845 3.109 2.21 1.315 1.014 2.272.178 2.152-.896-.06-1.075 1.435-7.941-3.706-7.046-5.142.836-5.68 1.91-5.74 2.926Z"/><path stroke="#2C2C2C" stroke-miterlimit="10" stroke-width="2" d="M34.864 47.24C41.567 47.24 47 41.815 47 35.12 47 28.427 41.567 23 34.864 23c-6.702 0-12.135 5.427-12.135 12.12 0 6.694 5.433 12.12 12.135 12.12Z"/><path stroke="#2C2C2C" stroke-linecap="round" stroke-linejoin="round" stroke-miterlimit="10" stroke-width="2" d="M17.62 11.846s1.08 6.352-1.8 6.352c-1.56.72-4.02-1.917-4.08-3.655M15.82 18.498v2.098M20.98 22.333s-1.98-2.816-5.16-2.936M8.68 19.637s-2.1-.24-4.02 2.277"/><path stroke="#2C2C2C" stroke-linecap="round" stroke-linejoin="round" stroke-miterlimit="10" stroke-width="2" d="M13.5 26C20.404 26 26 20.404 26 13.5S20.404 1 13.5 1 1 6.596 1 13.5 6.596 26 13.5 26Z"/><mask id="b" fill="#fff"><path fill-rule="evenodd" d="M11.254 6.722a1.56 1.56 0 0 0-3.054.45c0 .664.415 1.23 1 1.455a5.484 5.484 0 0 0-.52 1.062c-1.5 4.135-1.8 12.644 2.64 14.143 1.02.36 3.48-4.375.66-9.109.268-.208.5-.448.743-.7.786-.816 1.699-1.765 4.417-2.176.19.19.33.229.498.277.152.042.326.092.582.262.3-3.476-.9-5.214-2.64-5.933-1.463-.571-3.027-.42-4.326.27Z" clip-rule="evenodd"/></mask><path fill="#2C2C2C" d="M11.254 6.722 9.339 7.3l.702 2.33 2.15-1.14-.937-1.768ZM9.2 8.627l1.69 1.068 1.302-2.06-2.275-.875L9.2 8.627Zm-.52 1.062 1.88.682-1.88-.682Zm2.64 14.143.665-1.887-.013-.004-.013-.005-.64 1.896Zm.66-9.109-1.222-1.583-1.404 1.083.907 1.523 1.719-1.023Zm.743-.7-1.44-1.387 1.44 1.387Zm4.417-2.176 1.413-1.415-.715-.714-.998.151.3 1.978Zm.498.277-.545 1.924.545-1.924Zm.582.262L17.11 14.05l2.81 1.871.291-3.364-1.992-.172Zm-2.64-5.933.763-1.848-.017-.007-.018-.008-.728 1.863Zm-2.411-.308a3.56 3.56 0 0 0-3.409-2.53v4a.44.44 0 0 1-.42-.315l3.829-1.155ZM9.76 3.615A3.559 3.559 0 0 0 6.2 7.171h4c0 .247-.2.442-.44.442v-4ZM6.2 7.171c0 1.52.951 2.81 2.282 3.322L9.917 6.76c.161.062.283.22.283.412h-4Zm4.36 3.198c.088-.242.2-.467.33-.675L7.51 7.559a7.484 7.484 0 0 0-.71 1.45l3.761 1.361Zm1.4 11.566c-1.009-.34-1.918-1.68-2.198-4.392-.263-2.537.153-5.395.798-7.173L6.8 9.007c-.855 2.357-1.34 5.822-1.017 8.948.305 2.951 1.465 6.614 4.897 7.772l1.28-3.79Zm-1.699-6.19c1.116 1.873 1.17 3.705.878 5.002-.15.664-.374 1.114-.523 1.324-.08.114-.079.073.046-.008.101-.067.62-.366 1.322-.119l-1.33 3.773c.958.337 1.777-.032 2.198-.307.443-.29.782-.678 1.031-1.031.512-.725.917-1.687 1.158-2.753.488-2.164.361-5.066-1.343-7.928l-3.437 2.047Zm1.021-3.11c-.26.27-.392.401-.524.504l2.444 3.166c.404-.312.735-.661.962-.896l-2.882-2.774Zm5.558-2.767c-1.555.236-2.716.644-3.645 1.189-.926.543-1.515 1.165-1.913 1.578l2.882 2.774c.388-.403.648-.663 1.054-.902.404-.236 1.059-.508 2.221-.684l-.599-3.955Zm1.343.33c-.105-.03-.008-.007.102.047a1.178 1.178 0 0 1 .268.185l-2.827 2.83c.229.229.484.421.782.569.27.134.521.2.585.218l1.09-3.849Zm1.145.522a3.792 3.792 0 0 0-1.145-.522l-1.09 3.849c.077.022.058.018.035.008a.578.578 0 0 1-.028-.013l.011.008 2.217-3.33Zm-4.512-2.42c.464.193.814.489 1.06.98.266.53.48 1.435.351 2.933l3.985.344c.171-1.978-.064-3.68-.759-5.067a5.951 5.951 0 0 0-3.11-2.886l-1.527 3.697Zm-2.625.188c.82-.435 1.778-.518 2.66-.173l1.457-3.726c-2.043-.798-4.214-.577-5.991.365l1.874 3.534Z" mask="url(#b)"/><path stroke="#2C2C2C" stroke-linecap="round" stroke-linejoin="round" stroke-miterlimit="10" stroke-width="2" d="M16.86 42.273H3.77L1 46.517V32.22C1 30.98 1.944 30 3.14 30h13.72c1.196 0 2.14.98 2.14 2.22v7.834c0 1.24-.944 2.22-2.14 2.22ZM5 34h9.682M5 37.944h9.682M43.944 14.646H31.61L29 18.756V5.117C29 3.934 29.89 3 31.016 3h12.988c1.127 0 2.016.934 2.016 2.117v7.474c-.06 1.12-.949 2.055-2.076 2.055Z"/><path stroke="#2C2C2C" stroke-linecap="round" stroke-linejoin="round" stroke-miterlimit="10" stroke-width="2" d="M33.5 11a1.5 1.5 0 1 0 0-3 1.5 1.5 0 0 0 0 3ZM40.5 11a1.5 1.5 0 1 0 0-3 1.5 1.5 0 0 0 0 3Z"/></g><defs><clipPath id="a"><path fill="#fff" d="M0 0h48v48H0z"/></clipPath></defs></svg>
