<svg xmlns="http://www.w3.org/2000/svg" width="48" height="48" fill="none"><g stroke="#2C2C2C" stroke-linecap="round" stroke-linejoin="round" stroke-miterlimit="10" stroke-width="2" clip-path="url(#a)"><path d="M24 42a3 3 0 1 0 0-6 3 3 0 0 0 0 6ZM9.5 47a8.5 8.5 0 1 0 0-17 8.5 8.5 0 0 0 0 17Z"/><path d="M9.5 41a2.5 2.5 0 1 0 0-5 2.5 2.5 0 0 0 0 5ZM38.5 47a8.5 8.5 0 1 0 0-17 8.5 8.5 0 0 0 0 17Z"/><path d="M38.5 41a2.5 2.5 0 1 0 0-5 2.5 2.5 0 0 0 0 5ZM12 39h8.46"/><path d="M12.14 37.139 21 29l17-4 .06 11.6M38 25 23 36M18.68 25.154l4.56 10.666M24 39v6h3M38 25v-6h-5.72a2.278 2.278 0 1 0 0 4.554h1.26M12 27h7v-2.25L12 23v4ZM1 18.5 7 8l4 5 4.5-8.5L24 13 34.5 1.5 45 15"/><path d="m31 6 3 3 4-3M1 18.5h8.5M45 15H35"/></g><defs><clipPath id="a"><path fill="#fff" d="M0 0h48v48H0z"/></clipPath></defs></svg>
