<svg xmlns="http://www.w3.org/2000/svg" width="48" height="48" fill="none"><g stroke="#2C2C2C" stroke-miterlimit="10" stroke-width="2" clip-path="url(#a)"><path stroke-linecap="round" stroke-linejoin="round" d="M43.889 23.135H31L27 29V4.027A3.038 3.038 0 0 1 30.048 1h13.905C45.602 1 47 2.324 47 4.027v16.081c-.063 1.703-1.397 3.027-3.111 3.027ZM19.558 15.063H4.297L1 20V3.5C1 2.125 2.099 1 3.442 1h16.116C20.901 1 22 2.125 22 3.5v9c0 1.438-1.099 2.563-2.442 2.563ZM5 6h13M5 10h13M31.306 28.437h4.511v4.505M28.32 35.988l7.498-7.551M42.489 39.414h4.51v4.506M40 46l7-6M40.265 29.388h5.718v5.647M29.273 46.077 45.92 29.452"/><path stroke-linecap="round" stroke-linejoin="round" d="M29.845 17.712s.953-4.188 2.478-3.998c1.525.19 1.334 1.84 3.113 1.968 1.78.127 2.097-6.663 3.24-6.663 1.144 0 1.208 2.792 2.542 2.792 1.334 0 1.716-4.633 2.605-4.633M32.45 10.541a1.714 1.714 0 1 0 .002-3.428 1.714 1.714 0 0 0-.002 3.428ZM39.312 16.823h4.51"/><path d="M8.685 33.64s.236 5.557 1.773 6.267c1.537.709 3.96-1.892 4.02-3.547"/><path d="M14.3 37.128s.474 4.907 1.774 5.675M10.458 39.906v2.306M5.434 43.926s1.95-2.778 5.025-2.896"/><path d="M15.01 40.852s4.492.178 6.384 2.66M7.03 31.512s-.355 1.95 1.064 2.128c1.477.177 2.128-.71 3.074.65.376.54 1.337.846 3.073 2.188 1.3 1.004 2.247.177 2.128-.887-.059-1.064 1.42-7.862-3.665-6.976-5.083.828-5.615 1.892-5.674 2.897Z"/><path d="M13 47c6.627 0 12-5.373 12-12s-5.373-12-12-12S1 28.373 1 35s5.373 12 12 12Z"/></g><defs><clipPath id="a"><path fill="#fff" d="M0 0h48v48H0z"/></clipPath></defs></svg>
